<svg width="15" height="17" viewBox="0 0 15 17" fill="none" xmlns="http://www.w3.org/2000/svg">
<path d="M9.88304 4.33143C9.88151 5.0876 9.65581 5.82634 9.23447 6.45425C8.81313 7.08216 8.21508 7.57104 7.51592 7.85909C6.81676 8.14714 6.04789 8.22143 5.30652 8.07255C4.56515 7.92367 3.88456 7.55831 3.35082 7.02267C2.81707 6.48703 2.45412 5.80516 2.30786 5.06327C2.16161 4.32137 2.23861 3.55277 2.52913 2.85463C2.81965 2.1565 3.31064 1.56018 3.94004 1.14106C4.56944 0.721947 5.30897 0.49886 6.06514 0.500004C7.07785 0.507123 8.04686 0.913503 8.76171 1.63088C9.47655 2.34826 9.8795 3.3187 9.88304 4.33143ZM8.72376 4.29278C8.71723 3.76442 8.5542 3.24986 8.25527 2.81414C7.95635 2.37842 7.53495 2.0411 7.04435 1.84484C6.55376 1.64857 6.01598 1.60216 5.49901 1.71147C4.98204 1.82079 4.50909 2.08092 4.13993 2.45899C3.77078 2.83705 3.522 3.31608 3.42505 3.83551C3.32809 4.35494 3.38731 4.89145 3.59523 5.37723C3.80314 5.86301 4.15041 6.27624 4.59313 6.56469C5.03586 6.85313 5.55416 7.00385 6.08253 6.99777C6.79163 6.98759 7.46796 6.69756 7.96415 6.19088C8.46033 5.6842 8.73615 5.00194 8.73149 4.29278H8.72376Z" fill="#333333"/>
<path d="M6.68537 9.68164C6.61195 10.6477 6.12891 10.9105 5.28071 10.8409C4.33203 10.7694 3.37176 10.8506 2.41922 10.8158C1.6367 10.7888 1.29278 11.2022 1.50338 11.8669C1.6966 12.4639 2.01733 13.2194 2.51003 13.4783C3.50288 14.0212 4.5799 14.3935 5.69612 14.5796C6.45158 14.6994 6.92689 14.9119 7.20125 15.5959C5.22661 16.3803 1.50338 14.9506 0.604941 13.059C-0.310891 11.1443 0.59528 9.6855 2.70324 9.68164H6.68537Z" fill="#333333"/>
<path d="M14.667 11.1268C14.8022 10.9645 14.7597 10.5317 14.6399 10.3115C14.5202 10.0912 14.1743 9.79752 13.9676 9.82651C12.8295 10.0004 12.134 9.61204 11.8094 8.47401C11.763 8.30978 11.3785 8.1726 11.1099 8.14941H11.05C11.05 8.14941 11.05 8.14941 11.0384 8.14941H10.9129H10.8375C10.5689 8.1726 10.1864 8.30978 10.1381 8.47401C9.81541 9.60818 9.11791 9.99653 7.97988 9.82651C7.78667 9.79752 7.43309 10.0796 7.31136 10.3037C7.18964 10.5279 7.14906 10.9568 7.28431 11.1191C7.97795 11.9383 7.97795 12.6822 7.30557 13.5169C7.16066 13.6985 7.22248 14.1603 7.35194 14.4076C7.42771 14.5257 7.53047 14.6241 7.65175 14.6946C7.77302 14.7652 7.90933 14.8059 8.04944 14.8133C9.09472 14.6781 9.76324 15.0239 10.1033 16.0576C10.1729 16.2663 10.54 16.4827 10.7834 16.5001H10.8124C10.8877 16.5001 10.9766 16.5001 10.9766 16.5001C10.9766 16.5001 11.0655 16.5001 11.1389 16.5001H11.1698C11.4114 16.4827 11.7785 16.2663 11.848 16.0576C12.1881 15.0239 12.8566 14.6781 13.9019 14.8133C14.0417 14.8064 14.1778 14.7664 14.2991 14.6965C14.4204 14.6266 14.5233 14.5289 14.5994 14.4115C14.7308 14.1641 14.7926 13.7024 14.6477 13.5207C13.9772 12.6822 13.9772 11.9383 14.667 11.1268ZM10.9766 13.6386C10.7152 13.639 10.4595 13.5618 10.2419 13.4168C10.0243 13.2718 9.85459 13.0656 9.75426 12.8241C9.65394 12.5827 9.62749 12.3169 9.67827 12.0604C9.72904 11.8039 9.85476 11.5682 10.0395 11.3832C10.2243 11.1982 10.4597 11.0721 10.7161 11.021C10.9726 10.9698 11.2384 10.9959 11.48 11.0959C11.7216 11.1958 11.9281 11.3652 12.0734 11.5826C12.2187 11.8 12.2963 12.0556 12.2963 12.317C12.2963 12.6672 12.1573 13.0031 11.9099 13.2508C11.6624 13.4986 11.3268 13.6381 10.9766 13.6386V13.6386Z" fill="#333333"/>
</svg>
