<svg version="1.0" xmlns="http://www.w3.org/2000/svg"
    width="24" height="24" viewBox="0 0 48.000000 48.000000"
    preserveAspectRatio="xMidYMid meet" fill="#000000">
    <g transform="translate(0.000000,48.000000) scale(0.100000,-0.100000)"
    fill="#000000" stroke="none">
    <path d="M201 426 c-47 -26 -63 -87 -37 -136 12 -21 12 -29 0 -52 -8 -15 -24
    -36 -35 -47 -27 -25 -21 -56 10 -56 18 0 26 7 31 25 4 14 19 45 34 68 31 50
    31 47 6 72 -11 11 -20 29 -20 40 0 26 34 60 60 60 21 0 60 -33 60 -50 0 -5 9
    -10 20 -10 23 0 25 9 8 45 -22 48 -88 68 -137 41z"/>
    <path d="M227 364 c-12 -12 -8 -44 6 -50 7 -2 26 -27 42 -54 25 -43 32 -48 56
    -43 19 4 33 -1 48 -16 26 -26 27 -55 1 -81 -17 -17 -28 -20 -70 -14 -34 4 -50
    3 -50 -4 0 -15 53 -42 80 -42 52 0 100 49 100 101 0 50 -49 99 -99 99 -20 0
    -50 38 -60 79 -7 25 -39 40 -54 25z"/>
    <path d="M91 246 c-47 -26 -63 -84 -37 -135 35 -67 137 -66 172 2 15 28 18 29
    77 25 60 -3 62 -2 62 22 0 19 -5 25 -22 24 -13 0 -50 -1 -83 -2 -53 -2 -60 -4
    -60 -22 0 -26 -34 -60 -60 -60 -26 0 -60 34 -60 60 0 11 9 29 21 41 11 11 19
    29 17 39 -3 16 -6 17 -27 6z"/>
    </g>
</svg>
