<svg width="17" height="15" viewBox="0 0 17 15" fill="none"
    xmlns="http://www.w3.org/2000/svg">
    <path
    d="M0 2.76649C0 1.77706 0.80209 0.974976 1.79152 0.974976C2.78094 0.974976 3.58303 1.77706 3.58303 2.76649V6.52677C3.58303 6.52729 3.58261 6.52771 3.58209 6.52771C3.58158 6.52771 3.58116 6.52813 3.58116 6.52865V7.19787C3.58116 7.56799 3.28112 7.86803 2.911 7.86803H1.79058C0.801669 7.86803 0 7.06636 0 6.07745V2.76649Z"
    fill="#F8F8F8" />
    <path
    d="M0 12.4634C0 11.6174 0.685804 10.9316 1.53179 10.9316H2.10621C2.95219 10.9316 3.638 11.6174 3.638 12.4634C3.638 13.3094 2.95219 13.9952 2.10621 13.9952H1.53179C0.685805 13.9952 0 13.3094 0 12.4634Z"
    fill="#F8F8F8" />
    <path
    d="M6.96762 14.0251C6.10398 14.0251 5.40387 13.325 5.40387 12.4613C5.40387 11.5977 6.10399 10.8976 6.96762 10.8976H8.98298C8.98411 10.8976 8.98503 10.8985 8.98503 10.8996C8.98503 10.9008 8.98594 10.9017 8.98707 10.9017H10.4211C11.3366 10.9017 12.0546 10.5846 12.5752 9.9503C13.1017 9.31604 13.365 8.49331 13.365 7.48209C13.365 6.4589 13.1017 5.63915 12.5752 5.02285C12.0486 4.40654 11.3306 4.09839 10.4211 4.09839C9.62797 4.09839 8.98503 4.74133 8.98503 5.53444V6.07745C8.98503 7.06636 8.18336 7.86803 7.19445 7.86803C6.20554 7.86803 5.40387 7.06636 5.40387 6.07745V3.97498C5.40387 2.31812 6.74702 0.974976 8.40387 0.974976H10.4211C11.4742 0.974976 12.4226 1.14551 13.2663 1.48657C14.1159 1.82165 14.807 2.28836 15.3396 2.88672C15.8781 3.47909 16.2879 4.1672 16.5692 4.95105C16.8564 5.72891 17 6.57259 17 7.48209C17 9.45666 16.3986 11.0423 15.196 12.239C13.9992 13.4297 12.4076 14.0251 10.4211 14.0251H6.96762Z"
    fill="#F8F8F8" />
</svg>
