<svg width="303" height="336" viewBox="0 0 303 336" fill="none" xmlns="http://www.w3.org/2000/svg">
<g style="mix-blend-mode:multiply">
<g style="mix-blend-mode:multiply">
<circle cx="156.359" cy="176.556" r="136.583" fill="url(#paint0_linear_164_176)"/>
<circle cx="59.9538" cy="297.216" r="27.3875" transform="rotate(45.2506 59.9538 297.216)" fill="url(#paint1_linear_164_176)"/>
<circle cx="15.118" cy="254.663" r="10.0564" transform="rotate(45.2506 15.118 254.663)" fill="url(#paint2_linear_164_176)" fill-opacity="0.2"/>
<path d="M36.6966 232.351L62.3495 258.004C61.6995 258.953 60.951 259.854 60.1041 260.693C52.8661 267.868 41.1821 267.817 34.0071 260.579C26.8321 253.341 26.8832 241.657 34.1212 234.482C34.9285 233.682 35.7911 232.972 36.6966 232.351Z" fill="url(#paint3_linear_164_176)"/>
<path d="M265.294 98.4491C271.42 95.9843 277.165 92.2826 282.149 87.3423C302.169 67.497 302.31 35.1802 282.465 15.1606C262.62 -4.85897 230.303 -5.0003 210.283 14.8449C200.572 24.4716 195.538 37.0328 195.194 49.7015C210.041 55.4495 232.679 70.6496 251.164 83.3579C256.469 87.005 261.175 92.2982 265.294 98.4491Z" fill="url(#paint4_linear_164_176)"/>
<path d="M171.446 311.309C158.012 309.293 142.039 306.927 141.058 306.896C139.452 306.847 109.084 301.09 104.315 299.335C101.306 298.228 97.0379 296.442 93.5153 294.443C93.2844 291.887 93.287 289.272 93.5427 286.623C95.7602 263.656 116.176 246.836 139.143 249.053C162.11 251.271 178.93 271.687 176.713 294.654C176.128 300.712 174.277 306.343 171.446 311.309Z" fill="url(#paint5_linear_164_176)"/>
<circle cx="191.71" cy="128.35" r="40.1716" fill="url(#paint6_linear_164_176)"/>
<circle cx="85.657" cy="182.984" r="20.8892" fill="url(#paint7_linear_164_176)"/>
</g>
<path d="M155.556 39.2865C152.206 40.7996 150.747 44.8525 152.314 48.1488C153.611 50.9047 155.556 51.6072 163.392 51.9855C190.194 53.4445 215.214 62.7931 236.019 79.2207C240.936 83.0574 252.068 94.1893 255.905 99.1068C269.577 116.399 278.601 137.312 282.059 159.575C283.302 167.573 283.302 185.298 282.059 193.836C278.006 221.99 266.118 245.766 246.34 265.49C231.209 280.567 214.62 290.618 194.734 296.724C188.357 298.67 179.765 300.669 179.387 300.291C179.225 300.183 179.495 298.616 179.927 296.832C180.9 292.509 180.9 283.971 179.819 278.838C176.523 262.788 164.634 249.819 148.531 244.686C143.343 243.01 132.428 242.578 126.7 243.821C118.324 245.604 110.812 249.495 104.598 255.277C99.8967 259.6 99.3023 263.761 102.869 266.949C104.112 268.138 105.03 268.462 106.922 268.462C109.029 268.462 109.678 268.138 112.434 265.706C119.729 259.222 125.403 256.682 133.508 256.196C139.939 255.817 144.1 256.628 149.774 259.33C160.149 264.301 166.85 274.407 167.552 286.025C167.877 291.266 167.39 294.509 165.499 299.534L164.31 302.669L155.07 302.344C140.641 301.804 130.05 299.859 116.973 295.427C104.976 291.32 90.44 283.323 79.9566 275.055C75.0391 271.218 63.9073 260.086 60.0706 255.169C46.3449 237.769 37.2665 216.748 33.9161 194.43C32.5652 185.784 32.6192 168.438 33.9161 159.575C37.9149 132.935 48.7226 110.671 67.4198 90.7308C71.1484 86.732 73.0938 84.2463 73.2559 83.2195C73.8503 79.0046 70.9863 75.5461 66.8253 75.5461C64.4477 75.5461 64.1775 75.7082 59.5302 80.2474C25.7023 113.211 11.8685 165.033 24.2433 212.209C26.8371 221.935 29.2148 228.258 33.9701 237.931C41.1032 252.467 48.5064 262.788 60.3948 274.731C72.3372 286.619 82.6585 294.022 97.1948 301.155C110.542 307.694 122.539 311.531 137.453 313.962C147.991 315.638 167.985 315.638 178.522 313.962C193.437 311.531 205.433 307.694 218.781 301.155C233.317 294.022 243.638 286.619 255.581 274.731C267.469 262.788 274.872 252.467 282.005 237.931C288.544 224.583 292.381 212.587 294.812 197.672C296.488 187.135 296.488 167.141 294.812 156.603C292.381 141.689 288.544 129.692 282.005 116.345C274.872 101.809 267.469 91.4874 255.581 79.5449C243.638 67.6566 233.317 60.2533 218.781 53.1203C205.433 46.5276 193.004 42.6369 178.792 40.4213C170.849 39.2325 157.177 38.53 155.556 39.2865Z" fill="#54575A"/>
<path d="M124.43 74.1952C118.269 77.5455 121.782 87.3805 128.699 86.0836C130.914 85.6512 133.4 83.2736 133.832 81.112C134.805 75.9784 129.023 71.7094 124.43 74.1952Z" fill="#54575A"/>
<path d="M186.79 79.8694C175.226 81.1123 166.526 85.2733 158.204 93.5951C147.774 104.024 143.073 117.048 144.532 131.584C146.532 151.092 159.987 166.817 179.441 172.383C185.115 174.004 196.841 174.112 202.569 172.599C219.105 168.276 231.642 156.117 236.721 139.474C238.018 135.259 238.18 133.8 238.18 126.883C238.234 118.291 237.37 114.13 234.235 107.213C227.751 92.8386 212.836 81.7608 197.976 80.1396C192.086 79.4912 190.627 79.4912 186.79 79.8694ZM199.543 93.6492C207.595 95.5405 216.403 102.025 220.564 109.158C224.833 116.345 226.4 125.586 224.779 133.367C221.266 150.011 205.919 161.845 189.276 160.711C180.684 160.17 173.334 156.766 167.174 150.605C163.067 146.498 159.555 140.284 158.258 134.934C157.231 130.503 157.231 122.614 158.258 118.507C161.176 106.889 171.281 96.7293 182.845 93.7032C186.79 92.6765 195.22 92.6765 199.543 93.6492Z" fill="#54575A"/>
<path d="M82.6042 154.766C68.7704 156.604 58.5572 167.79 58.5572 181.137C58.5572 193.458 66.8251 203.995 78.9296 207.129C89.3049 209.831 100.977 205.238 107.138 195.943C115.513 183.461 111.623 166.439 98.5995 158.549C94.1143 155.793 87.1974 154.172 82.6042 154.766ZM90.7099 168.978C93.4659 170.221 97.0864 174.274 97.897 177.03C100.221 184.758 95.8435 192.593 88.1161 194.484C77.6327 197.024 68.23 185.838 72.6612 176.057C73.9581 173.193 75.4171 171.518 78.065 169.843C80.4427 168.276 81.3073 168.114 85.3061 168.006C87.4136 168.006 89.3049 168.33 90.7099 168.978Z" fill="#54575A"/>
<path d="M225.265 184.379C213.431 188.162 206.19 199.672 208.135 211.506C210.891 228.312 229.264 237.012 244.233 228.637C251.636 224.476 257.418 213.668 256.067 206.481C255.527 203.509 253.041 201.455 250.015 201.455C245.746 201.455 244.071 203.401 243.098 209.615C242.72 212.155 240.504 215.505 238.072 217.126C236.451 218.261 235.532 218.477 232.02 218.477C227.211 218.477 224.995 217.343 222.617 213.722C218.078 206.643 222.347 197.943 230.993 196.538C232.831 196.268 234.992 195.511 235.803 194.971C239.045 192.647 239.261 187.946 236.235 185.136C234.776 183.785 234.236 183.623 230.993 183.677C229.048 183.677 226.454 184.001 225.265 184.379Z" fill="#54575A"/>
<path d="M147.666 195.781C144.478 197.51 143.451 202.266 145.613 205.292C147.937 208.534 153.502 208.534 155.826 205.238C157.177 203.346 157.231 199.78 155.988 197.834C154.313 195.295 150.368 194.322 147.666 195.781Z" fill="#54575A"/>
<path d="M68.1763 236.742C64.6098 239.768 64.7719 244.578 68.6086 247.117C73.472 250.306 79.7405 245.442 78.0653 239.768C76.8224 235.715 71.3645 234.04 68.1763 236.742Z" fill="#54575A"/>
<path d="M194.95 244.902C193.383 246.469 193.112 247.117 193.112 249.171C193.112 255.007 199.813 257.871 203.866 253.818C207.919 249.819 205.001 243.065 199.219 243.065C197.165 243.065 196.517 243.335 194.95 244.902Z" fill="#54575A"/>
<g style="mix-blend-mode:multiply">
<circle cx="287.882" cy="114.255" r="10.0564" transform="rotate(45.2506 287.882 114.255)" fill="url(#paint8_linear_164_176)"/>
</g>
</g>
<defs>
<linearGradient id="paint0_linear_164_176" x1="326.687" y1="272.968" x2="24.5962" y2="121.923" gradientUnits="userSpaceOnUse">
<stop stop-color="#C2C2C2"/>
<stop offset="0.822917" stop-color="#D8D3D3" stop-opacity="0"/>
</linearGradient>
<linearGradient id="paint1_linear_164_176" x1="19.061" y1="265.081" x2="123.823" y2="319.58" gradientUnits="userSpaceOnUse">
<stop stop-color="#A4A8B2"/>
<stop offset="1" stop-color="#DCDADA" stop-opacity="0"/>
</linearGradient>
<linearGradient id="paint2_linear_164_176" x1="0.102567" y1="242.864" x2="38.5702" y2="262.875" gradientUnits="userSpaceOnUse">
<stop stop-color="#A4A8B2"/>
<stop offset="1" stop-color="#DCDADA" stop-opacity="0"/>
</linearGradient>
<linearGradient id="paint3_linear_164_176" x1="43.092" y1="212.776" x2="66.7077" y2="288.759" gradientUnits="userSpaceOnUse">
<stop stop-color="#A4A8B2"/>
<stop offset="1" stop-color="#DCDADA" stop-opacity="0"/>
</linearGradient>
<linearGradient id="paint4_linear_164_176" x1="245.18" y1="-25.137" x2="253.137" y2="142.451" gradientUnits="userSpaceOnUse">
<stop stop-color="#D1CFCF"/>
<stop offset="1" stop-color="#DCDADA" stop-opacity="0"/>
</linearGradient>
<linearGradient id="paint5_linear_164_176" x1="170.357" y1="241.376" x2="83.8721" y2="290.757" gradientUnits="userSpaceOnUse">
<stop offset="0.00364172" stop-color="#A1A5AA"/>
<stop offset="0.908106" stop-color="#CFD2D6" stop-opacity="0"/>
</linearGradient>
<linearGradient id="paint6_linear_164_176" x1="167.607" y1="88.1788" x2="212.599" y2="171.736" gradientUnits="userSpaceOnUse">
<stop offset="0.00364172" stop-color="#A1A5AA"/>
<stop offset="0.908106" stop-color="#CFD2D6" stop-opacity="0"/>
</linearGradient>
<linearGradient id="paint7_linear_164_176" x1="73.1235" y1="162.094" x2="96.5194" y2="205.544" gradientUnits="userSpaceOnUse">
<stop offset="0.00364172" stop-color="#A1A5AA"/>
<stop offset="0.908106" stop-color="#CFD2D6" stop-opacity="0"/>
</linearGradient>
<linearGradient id="paint8_linear_164_176" x1="279.161" y1="121.111" x2="309.735" y2="97.1163" gradientUnits="userSpaceOnUse">
<stop offset="0.0364583" stop-color="#A4A8B2"/>
<stop offset="1" stop-color="#DCDADA" stop-opacity="0"/>
</linearGradient>
</defs>
</svg>
