<svg width="16" height="17" viewBox="0 0 16 17" fill="none" xmlns="http://www.w3.org/2000/svg">
<path d="M0.107693 8.43655C0.107693 6.73551 0.107693 5.03447 0.107693 3.33568C0.130104 1.47103 1.06019 0.516299 2.89569 0.505094C5.36993 0.497623 7.8494 0.49837 10.3341 0.507335C11.7617 0.516299 12.8352 1.34777 12.9428 2.56472C12.9563 2.72384 13.0369 3.82873 12.9428 3.99682C12.889 4.09767 12.6447 4.15146 12.4229 4.14025C12.3263 4.13503 12.2331 4.10288 12.1539 4.04742C12.0747 3.99197 12.0126 3.91543 11.9746 3.82649C11.8588 3.53077 11.7688 3.22558 11.7057 2.91434C11.4457 1.90582 10.7666 1.82514 9.7133 1.84979C7.69625 1.89909 5.55147 1.86772 3.2498 1.84979C1.65633 1.82289 1.55548 2.37646 1.6003 4.48763C1.66306 7.37648 1.58462 10.16 1.56893 12.6544C1.55548 14.6715 1.64737 15.2923 3.36185 15.1376C5.41745 14.93 7.48844 14.924 9.54521 15.1197C10.6949 15.2429 11.439 15.1354 11.7124 14.0708C11.7796 13.8041 11.7908 13.3649 12.071 13.1497C12.2144 13.0175 12.8532 13.0399 12.9406 13.2013C13.028 13.3626 12.963 14.2546 12.9406 14.4227C12.8759 14.9822 12.6086 15.4987 12.189 15.8744C11.7694 16.2502 11.2268 16.4593 10.6635 16.4621C7.92709 16.5092 5.18616 16.5159 2.4497 16.4621C1.0826 16.433 0.152516 15.3976 0.125622 13.9834C0.0897635 12.1345 0.107693 10.2855 0.107693 8.43655Z" fill="#333333"/>
<path d="M12.0239 5.96688C11.8312 5.74276 11.4121 5.40435 11.8895 4.92698C12.3668 4.44962 12.7994 4.95612 12.9361 5.07938C13.93 5.96276 14.8693 6.90579 15.7487 7.90324C15.9527 8.12736 15.9437 8.86022 15.7353 9.10002C14.8563 10.0986 13.9162 11.0417 12.9204 11.9239C12.6963 12.1166 12.3399 12.52 11.876 12.0539C11.4457 11.6236 11.8379 11.2426 12.0307 11.0117C12.5999 10.3394 13.3372 9.79254 13.967 9.16277H7.7478C6.71238 9.16277 5.67473 9.21656 4.64603 9.1314C4.3121 9.10002 3.69354 9.11571 3.69354 8.48818C3.69354 7.79342 4.33675 7.8629 4.66172 7.85842C7.46989 7.80687 10.2803 7.82928 13.0885 7.82704H14.1104C13.4336 7.18159 12.638 6.65716 12.0239 5.96688Z" fill="#333333"/>
</svg>
