<svg width="15" height="17" viewBox="0 0 15 17" fill="none" xmlns="http://www.w3.org/2000/svg">
<path fill-rule="evenodd" clip-rule="evenodd" d="M7.3208 16.1825C7.6863 16.1868 8.04533 16.155 8.38863 16.0836C10.2587 15.7656 12.1365 14.7074 12.8204 13.2674C13.8983 11.0138 12.8318 9.29691 10.3508 9.29236H4.6492C2.16819 9.29691 1.10166 11.0138 2.17956 13.2674C2.76812 14.5066 4.11268 15.463 5.59008 15.9083C6.1078 16.1028 6.70049 16.1895 7.3208 16.1825ZM7.68281 10.6568C7.88212 10.6516 8.05962 10.6413 8.2173 10.6218C8.55434 10.6186 8.89207 10.624 9.22986 10.6294C9.7154 10.6371 10.2011 10.6449 10.685 10.6272C11.606 10.5954 12.0108 11.082 11.763 11.8643C11.5355 12.567 11.1581 13.4562 10.5782 13.7609C10.2159 13.959 9.95481 14.1479 9.72495 14.3142C9.21342 14.6842 8.85639 14.9425 7.88179 14.9425C6.56826 14.9425 5.71618 14.4733 4.66352 13.8937C4.58418 13.85 4.5037 13.8057 4.42179 13.7609C3.84191 13.4562 3.46441 12.567 3.23701 11.8643C2.98913 11.082 3.39392 10.5954 4.31491 10.6272C5.20746 10.6598 6.10226 10.6777 6.99622 10.669C7.04263 10.6696 7.09019 10.669 7.1389 10.6673C7.32025 10.665 7.50156 10.6615 7.68281 10.6568Z" fill="#333333"/>
<path d="M11.1777 4.82742C11.1761 5.61889 10.9399 6.39211 10.4989 7.04933C10.0579 7.70655 9.43189 8.21826 8.70009 8.51976C7.9683 8.82125 7.16353 8.899 6.38755 8.74317C5.61157 8.58734 4.89922 8.20493 4.34056 7.64429C3.78189 7.08365 3.402 6.36994 3.24892 5.59342C3.09583 4.81689 3.17643 4.01241 3.48051 3.28169C3.78459 2.55096 4.29851 1.9268 4.95729 1.48813C5.61606 1.04945 6.39012 0.815945 7.18159 0.817143C8.24158 0.824594 9.25582 1.24994 10.004 2.00081C10.7522 2.75167 11.174 3.76741 11.1777 4.82742ZM9.96432 4.78697C9.95748 4.23395 9.78684 3.69536 9.47396 3.2393C9.16108 2.78324 8.72001 2.43018 8.20651 2.22475C7.69301 2.01932 7.13014 1.97075 6.58903 2.08516C6.04793 2.19958 5.5529 2.47186 5.16651 2.86757C4.78012 3.26328 4.51973 3.76467 4.41825 4.30835C4.31677 4.85202 4.37876 5.41358 4.59638 5.92204C4.81399 6.43049 5.17747 6.86301 5.64087 7.16492C6.10426 7.46684 6.64676 7.62459 7.19979 7.61823C7.94199 7.60757 8.6499 7.304 9.16925 6.77367C9.68859 6.24334 9.97728 5.52923 9.9724 4.78697H9.96432Z" fill="#333333"/>
</svg>
